<svg width="512" height="512" xmlns="http://www.w3.org/2000/svg"><path style="fill:#149eca;stroke:none" d="M116.667 227.333h-51c-9.584 0-19.784-1.146-29 1.9-9.661 3.193-18.365 11.448-21.756 21.1-3.549 10.103-2.244 21.47-2.244 32v56c0 13.587-.188 26.465 10.173 36.826 9.273 9.273 22.295 11.17 34.827 11.174 6.632.003 16.414-1.867 22 2.318 13.138 9.845 24.388 24.071 36 35.682 4.386 4.385 9.866 12.057 16.996 10.156 6.558-1.748 6.994-7.406 7.004-13.156v-35h61c16.445 0 33.62-2.22 42.64-18 10.323-18.059 5.36-45.958 5.36-66h47v60c0 6.441-1.965 17.01 6.04 19.485 10.113 3.13 19.899-11.424 25.96-17.485l42-42c5.916-5.916 12.46-15.202 20-18.972 6.635-3.318 18.688-1.028 26-1.028 24.097 0 47.804.38 64.535-20 13.403-16.324 12.465-36.07 12.465-56 0-7.115 1.125-19.633-9-20.212-6.535-.374-9.672 5.525-9.96 11.212-.672 13.258 2.402 28.22-1.79 41-7.852 23.946-30.087 25-51.25 25-11.258 0-28.508-3.238-39 1.01-8.484 3.434-15.65 13.64-22 19.99l-46 46v-45c0-5.318 1.457-13.292-1.742-17.89-5.913-8.499-30.93-4.11-40.258-4.11h-77c-12.618 0-27.387 2.133-39-3.82-10.98-5.63-18.997-16.74-19.91-29.18-2.611-35.587-.09-72.308-.09-108 0-15.462-3.468-35.7 3.328-50 8.762-18.433 27.529-21 45.672-21h217c20.15 0 46.06-4.36 61.71 11.29 12.118 12.116 10.29 27.994 10.29 43.71 0 5.456-1.29 12.95 1.457 17.895 5.579 10.045 16.382 2.881 17.369-5.895 3.2-28.478.497-62.244-26.826-78.123-19.485-11.324-46.34-6.877-68-6.877h-212c-15.42 0-30.504-.723-44 8.101-24.278 15.875-25 40.835-25 66.9v99m96-112.518c-9.152 2.003-11.42 13.956-1.995 17.623 11.81 4.597 31.36.894 43.995.894h133c4.606 0 10.035.614 13.856-2.514 5.623-4.604 3.678-12.998-2.861-15.454-9.064-3.404-22.41-1.032-31.995-1.032h-104c-15.723 0-34.638-2.879-50 .483m-1.985 51.17c-8.056 2.606-8.485 14.518 0 16.913 13.06 3.687 31.405.434 44.985.434h132c4.269 0 10.128.976 13.775-1.742 5.445-4.057 4.3-12.61-1.82-15.249-8.294-3.576-22.013-1.009-30.955-1.009h-109c-14.49 0-35.2-3.808-48.985.653m269.028 3.093c-10.89 4.258-3.996 20.926 6.913 16.512 10.587-4.284 3.598-20.622-6.913-16.512m-270 47.996c-7.738 3.15-6.565 14.167.972 16.605 7.847 2.54 18.784.653 26.985.653h57c7.78 0 22.284 2.764 28.94-1.742 6.28-4.25 4.72-14.593-2.955-16.03-24.214-4.533-53.314-.228-77.985-.228-9.398 0-24.21-2.816-32.956.742m-93.044 28.258c.303 7.057 1.314 14.33 3.698 21 16.182 45.27 71.548 36 109.302 36v40c0 8.273.318 15.944-7.015 21.431-6.484 4.851-15.375 3.57-22.985 3.57h-50c-7.491 0-20.974-2.656-26.11 4.213-5.57 7.448-2.89 22.027-2.89 30.786-12.868-9.065-22.331-28.052-37-33.99-14.467-5.857-36.72 6.512-48.291-7.195-6.048-7.163-4.71-18.107-4.71-26.815v-62c.001-9.02.384-18.748 9.005-23.992 7.138-4.34 17.027-3.008 24.996-3.008z"/></svg>